PathFileType	4	(X/Y/Z)	29_1_42_p0_0-391_filt_butterworth.trc
DataRate	CameraRate	NumFrames	NumMarkers	Units	OrigDataRate	OrigDataStartFrame	OrigNumFrames
59.0	59.0	6	27	m	59.0	293	391
Frame#	Time	RHip			RKnee			RAnkle			RBigToe			RSmallToe			RHeel			LHip			LKnee			LAnkle			LBigToe			LSmallToe			LHeel			Neck			Head			Nose			RShoulder			RElbow			RWrist			RThumb			RIndex			RPinky			LShoulder			LElbow			LWrist			LThumb			LIndex			LPinky			
		X1	Y1	Z1	X2	Y2	Z2	X3	Y3	Z3	X4	Y4	Z4	X5	Y5	Z5	X6	Y6	Z6	X7	Y7	Z7	X8	Y8	Z8	X9	Y9	Z9	X10	Y10	Z10	X11	Y11	Z11	X12	Y12	Z12	X13	Y13	Z13	X14	Y14	Z14	X15	Y15	Z15	X16	Y16	Z16	X17	Y17	Z17	X18	Y18	Z18	X19	Y19	Z19	X20	Y20	Z20	X21	Y21	Z21	X22	Y22	Z22	X23	Y23	Z23	X24	Y24	Z24	X25	Y25	Z25	X26	Y26	Z26	X27	Y27	Z27	
293	4.966101694915254	0.37752957094930495	0.5617175841379701	0.9445452766493434	0.32740041762265926	0.7065480757750473	1.357733346543288	0.2992529512272162	0.7649871708518436	1.7267604807553565	0.28401081105675613	0.6524235382558653	1.782758165321928	0.3258270984462381	0.6514201977436557	1.7672993578888374	0.27027785552293093	0.8416632795282318	1.7867899117609078	0.17860853860676973	0.5320095763142589	0.9311306732379114	0.1263032328186822	0.6810685196677643	1.3442115810025141	0.10417772227103761	0.7680694386649227	1.7126156889296509	0.12053302063840862	0.6245826941260418	1.7589588135130119	0.06730641485240907	0.6637392020530165	1.7582904009386502	0.11084824401896409	0.8169024933126066	1.7562751461470623	0.31175862812175825	0.44304657593242425	0.3948305893841893	0.34334390478198373	0.37377830089041336	0.1717941969541656	0.3596142383273582	0.32619695209232247	0.28485328077020017	0.4428270374028227	0.48307926405942814	0.4777263253540911	0.47539147222392564	0.4029022892634098	0.6873341145540002	0.41068422376332936	0.26898916956704744	0.5835573876399989	0.35851880392577395	0.1834662693518157	0.5093387119892301	0.3587512765789259	0.16967840553460897	0.5141324546673346	0.3601368334934243	0.17311253132270601	0.5508131957991627	0.14284278691034974	0.41496483976461984	0.46396825165568273	0.07838129254325904	0.4570332803721663	0.6895065769607543	0.16898428797921236	0.32521574765623706	0.8467372923460603	0.2193272787459355	0.29786534738038917	0.9245714236470235	0.20277688442045147	0.26953149917126007	0.9419848672526346	0.16474131041350912	0.26322261819707615	0.9395802165839177
294	4.983050847457627	0.37758110235761577	0.5640532174646685	0.9456713008559764	0.3270280888527054	0.7062327794766957	1.3566629953139624	0.29938558776914725	0.7587514850078652	1.7244149674443705	0.2837136048558249	0.6511628292880969	1.7821679520199198	0.32563518185629453	0.6512727256826238	1.7670687339129203	0.27024538829812716	0.8417727104648103	1.7869029765873008	0.17655373559747614	0.5301697579954059	0.9305406396123719	0.12449812978836099	0.6801062452295854	1.3432793751227414	0.10418699733616574	0.7680405863131491	1.7125095592401518	0.12052339243380965	0.6241362194277073	1.7582582080052558	0.06725621427344575	0.6637897370394026	1.7582598292438032	0.11084173632571681	0.8170158428220757	1.756284369048438	0.311699939110447	0.4432461171167364	0.39482681176095813	0.34075943034446826	0.38003753375781957	0.17114011810165247	0.3582604617257026	0.3256217198792848	0.28398731153237655	0.4431327166557333	0.48150754946131213	0.4777940572663437	0.47495711944889774	0.40947478446588725	0.6872527859168865	0.4106651356003076	0.2629579109450623	0.591920470076375	0.3591467432095044	0.17464030854864948	0.5188303339308531	0.3581005343766307	0.1614866766845966	0.5231506543677852	0.36090799188676587	0.17308351084934281	0.5701993429279992	0.14055105220970662	0.41792764521920434	0.46164523642880245	0.07833267599647263	0.4549795925919295	0.681946396385274	0.17946110823527625	0.2993612553717593	0.8123603617685877	0.23005724647916448	0.26816529361130803	0.8849887039900333	0.21595162301261592	0.23308706462575546	0.900901124011325	0.17129752564361547	0.23310759488646957	0.9032921772486691
295	5.0	0.37796470473466726	0.5670502457621586	0.9462029982034961	0.32689201839077686	0.7065033133570522	1.3571982903386743	0.2996801543516006	0.7563229628136832	1.723696554026363	0.2833095181101108	0.6492454776151724	1.7812597052143295	0.32554865251984555	0.6515461173689933	1.7668358331976433	0.2701986936709678	0.8419071189391254	1.7869974210537696	0.17190129089492612	0.5289098057027497	0.9301993148210059	0.12335426720669945	0.6786485276860895	1.3415233274342175	0.10419001959709645	0.7679804839038771	1.7123568424223685	0.12050748593617652	0.6233197067362147	1.7572385294360244	0.06721586222693854	0.6638830974121609	1.7583193779824682	0.11084721352117743	0.8170337051817894	1.7562894511225182	0.31175428096019775	0.44313444428853876	0.3947931442252931	0.3375806448762312	0.38377347137643797	0.1701396234105215	0.35737588314425706	0.32486591018116096	0.28249096194508966	0.44345425266799554	0.48078204898266463	0.47782096062006596	0.47458394116511265	0.41704803726989126	0.6868679548299833	0.4107520969505727	0.25794880716728835	0.6003251322514149	0.3586760438060048	0.17018953055751923	0.5307277709639021	0.3571468227411359	0.15271083898380594	0.5333796492644273	0.3609625253117514	0.17362909882930494	0.5869774902102547	0.13972970708658278	0.4189443763666936	0.45939260458392767	0.07836177752250889	0.45466009063323654	0.6771855701656462	0.18668271845112341	0.2755618333699659	0.7755017635096908	0.243189041262589	0.23225333277256055	0.8354761876436672	0.23167714486206603	0.20034247057891277	0.8495243759811597	0.18326253814575597	0.2067571439834083	0.8597344165080427
296	5.016949152542373	0.3784997316891729	0.5682771847457824	0.945347215037502	0.32701793385329386	0.7072580531153771	1.3586908244750295	0.3004118716683073	0.7580617258200439	1.7244419627125407	0.2831084386120916	0.6480110826036651	1.780676741310061	0.32570407517359856	0.6520833991144493	1.7669028563530893	0.27017165637873647	0.8420757341930659	1.78716168651572	0.1672943552412571	0.5259346673926875	0.9301265264339672	0.12321951570097288	0.677237351808556	1.340025816057714	0.10418405382926899	0.7678928999178004	1.7121897074774997	0.12053799361129125	0.6228828695657896	1.7571850976076355	0.06720897029233154	0.6640211619175784	1.7584874698972894	0.11084628158191998	0.8170805580246889	1.7563514173297556	0.31176886544143234	0.4429317692005307	0.39452093466910715	0.3342948519205886	0.3833692562216432	0.16864932537416222	0.3569888042690882	0.32424689810481366	0.2806771873667825	0.4436861610969008	0.4810354555532247	0.4777719402842624	0.47455217269352523	0.41921047892479435	0.686052630731332	0.41091542299397743	0.25470877679417825	0.6088569319628273	0.35814854631295673	0.1682495263336975	0.5455213358108106	0.3563562441340177	0.1477659056531809	0.5467785683599332	0.3607546649493537	0.1737143378475373	0.5993561647714385	0.13971561973573954	0.4189514670836664	0.45812279841815945	0.07828693329605999	0.4536339292668767	0.676757189299312	0.19008751560017068	0.25564786402168826	0.7373190399055749	0.25409161191165536	0.1991992520135087	0.776319126721713	0.24497353778540312	0.179128952321374	0.7888762733430466	0.20278992979278787	0.18444642008033152	0.8073076252213915
297	5.033898305084746	0.3788180346292717	0.5665601023960073	0.9436322004143849	0.32726030528563516	0.7081669034352429	1.3600368531699163	0.3014118258012443	0.762570905245283	1.7255891599740547	0.2831631881681661	0.6477191799720066	1.7805409982042493	0.32601275224095494	0.652518249363964	1.7672536147845848	0.27018797918404136	0.8422494732596756	1.7874274335611513	0.16494807463773797	0.5207798024898016	0.9303355822375816	0.12365599340644642	0.6764199647796794	1.339309065705085	0.10418626979882464	0.7678881443772296	1.7121853991470344	0.1206802867727528	0.6236885410927013	1.7585632210184687	0.06723780106336097	0.6641727854981729	1.7586998751849148	0.11079305332001546	0.8173557972900941	1.7565274136999034	0.3117151864993356	0.4426187492892662	0.3938173700053676	0.3314884507614418	0.3809656322954636	0.16677336918131286	0.3568828437083683	0.3237411014014725	0.2791493526827054	0.44371675292373575	0.48131309984158344	0.4776316037669335	0.47475650619617143	0.4127379527828379	0.6853311371669526	0.41066387015115374	0.251018370085839	0.6167481291352984	0.3579581476097375	0.16693380810068328	0.5609335809622542	0.35567723849474703	0.14869137135960467	0.5629085151088268	0.3606026079854555	0.17260482478766392	0.6080299579781553	0.13989326816274872	0.4187718466717564	0.45774604805967994	0.0776091166965878	0.44580290183188903	0.679680197368625	0.19116773385601596	0.2451486738428011	0.7000539551173606	0.26110019194529943	0.18041541824946877	0.7130075822618516	0.2545656641355719	0.17044523618812285	0.7231225227361091	0.2266273468769774	0.17278963657021595	0.7485902001177747
298	5.050847457627119	0.37809716431514506	0.5639146494736406	0.9427558017018693	0.327367568104545	0.708471235314122	1.3605975200444522	0.30220562816960006	0.7666634391797599	1.7262570730323177	0.28331113129950836	0.6478851073158552	1.7806082240849512	0.32626626220405497	0.6527202312667166	1.7676176546212232	0.27025554989062417	0.8423820122173687	1.7877757886137262	0.16460170156233905	0.5161799304121027	0.9308887407783842	0.12406139101284239	0.6763597550502649	1.3388421329209785	0.10424310717093929	0.7682072767684232	1.7127669940523722	0.12096102692993164	0.6261349357791159	1.7606659853687545	0.06729385762695055	0.6642663358287337	1.7588366498857928	0.11068214956301643	0.817855145533597	1.7567775358151194	0.31164207499602753	0.4422962718836403	0.39285524996514165	0.32978581889938885	0.3791889696951714	0.16537169664099466	0.35684203119011865	0.32340845031459753	0.27863085234767093	0.44363859001374006	0.48106667555506444	0.47755169196289177	0.4742825539483273	0.40289157685573573	0.6859686753151619	0.4091508295976567	0.2459925920750985	0.6232079416136299	0.3580142906236146	0.1656409420759993	0.5736101391134872	0.35458749821665914	0.15285303411198378	0.5776676688815534	0.36041411344504554	0.17056089859843204	0.6144878187726444	0.1400663457237541	0.41889109775406563	0.45730827335412055	0.07603109604150295	0.4275084468085974	0.6836423767277082	0.19208841456823642	0.24884214584468925	0.6653579709134362	0.2657221652661558	0.1810286710203697	0.6519293584880327	0.2626098954136977	0.17381628445857453	0.6585134063091386	0.24872441654027735	0.17689621460038155	0.6891953806946646
